<?xml version="1.0" encoding="UTF-8" standalone="no"?>
<!-- Created with Inkscape (http://www.inkscape.org/) -->

<svg
   width="210mm"
   height="297mm"
   viewBox="0 0 793.70081 1122.5197"
   version="1.1"
   id="svg1"
   sodipodi:docname="logo hackaton.svg"
   inkscape:version="1.4.2 (f4327f4, 2025-05-13)"
   xmlns:inkscape="http://www.inkscape.org/namespaces/inkscape"
   xmlns:sodipodi="http://sodipodi.sourceforge.net/DTD/sodipodi-0.dtd"
   xmlns="http://www.w3.org/2000/svg"
   xmlns:svg="http://www.w3.org/2000/svg">
  <sodipodi:namedview
     id="namedview1"
     pagecolor="#ffffff"
     bordercolor="#cccccc"
     borderopacity="1"
     inkscape:showpageshadow="0"
     inkscape:pageopacity="1"
     inkscape:pagecheckerboard="0"
     inkscape:deskcolor="#d1d1d1"
     inkscape:document-units="mm"
     inkscape:zoom="0.35355339"
     inkscape:cx="59.396969"
     inkscape:cy="691.55043"
     inkscape:window-width="1366"
     inkscape:window-height="705"
     inkscape:window-x="-8"
     inkscape:window-y="-8"
     inkscape:window-maximized="1"
     inkscape:current-layer="layer1" />
  <defs
     id="defs1">
    <inkscape:path-effect
       effect="fillet_chamfer"
       id="path-effect20"
       is_visible="true"
       lpeversion="1"
       nodesatellites_param="F,0,0,1,0,0,0,1 @ F,0,0,1,0,0,0,1 @ F,0,0,1,0,11.332778,0,1 @ F,0,0,1,0,9.380382,0,1"
       radius="0"
       unit="px"
       method="auto"
       mode="F"
       chamfer_steps="1"
       flexible="false"
       use_knot_distance="true"
       apply_no_radius="true"
       apply_with_radius="true"
       only_selected="false"
       hide_knots="false" />
  </defs>
  <g
     inkscape:label="Camada 1"
     inkscape:groupmode="layer"
     id="layer1">
    <g
       id="g41"
       transform="translate(12,-176)">
      <g
         id="g40">
        <g
           id="g39">
          <path
             style="font-size:76.987px;font-family:Arial;-inkscape-font-specification:Arial;stroke-width:17.8022;stroke-linejoin:bevel;stroke-dashoffset:3.77953"
             d="m 618.62091,404.76503 -0.76953,-70.87831 10.62691,-1.2136 41.72339,50.95278 -0.60418,-55.64866 9.93268,-1.13432 0.76953,70.87831 -10.62696,1.21361 -41.72386,-51.00114 0.60471,55.697 z"
             id="path16"
             sodipodi:nodetypes="ccccccccccc" />
          <path
             style="font-size:76.987px;font-family:Arial;-inkscape-font-specification:Arial;stroke-width:21.0998;stroke-linejoin:bevel;stroke-dashoffset:3.77953"
             d="m 438.88862,349.46863 v -77.91834 h -29.10639 v -10.42528 h 70.02408 v 10.42528 h -29.22693 v 77.91834 z"
             id="path14"
             sodipodi:nodetypes="ccccccccc" />
          <path
             style="font-size:76.987px;font-family:Arial;-inkscape-font-specification:Arial;stroke-width:20.5948;stroke-linejoin:bevel;stroke-dashoffset:3.77953"
             d="m 302.54235,322.41155 v -87.88098 l 11.19636,3.23418 v 43.5808 l 42.01526,-31.44427 15.17859,4.38449 -35.49365,25.35528 37.05191,62.97582 -14.7746,-4.26779 -30.12633,-53.1823 -13.85118,10.02633 v 30.45262 z"
             id="path12" />
          <path
             style="font-size:76.987px;font-family:Arial;-inkscape-font-specification:Arial;stroke-width:21.3335;stroke-linejoin:bevel;stroke-dashoffset:3.77953"
             d="m 168.96387,358.40009 -0.36522,-95.68197 11.87022,-4.61067 40.67645,45.21635 -6.9866,6.60777 0.66955,1.63199 -34.81547,13.52318 0.65089,28.76884 z m 10.74386,-43.5224 28.22723,-10.96415 -17.64629,-19.68358 c -5.37128,-5.97525 -9.57566,-10.96573 -12.61315,-14.97144 1.01352,5.75056 1.57691,11.63237 1.69016,17.64545 z"
             id="path10"
             sodipodi:nodetypes="ccccccccccccccc" />
          <path
             style="font-size:76.987px;font-family:Arial;-inkscape-font-specification:Arial;stroke-width:22.6545;stroke-linejoin:bevel;stroke-dashoffset:3.77953"
             d="m 92.664114,386.39433 v -94.85268 h 12.552136 v 38.95042 l 63.57256,-27.06446 v -38.95042 h 12.55215 v 94.85267 h -12.55215 v -44.70885 l -63.57256,27.06446 v 44.70886 z"
             id="text1"
             sodipodi:nodetypes="ccccccccccccc" />
          <path
             d="m 469.3748,347.62714 v -80.91343 h 10.44886 l 0.25865,33.22638 54.21417,21.4685 v -33.22638 h 10.70751 v 80.91342 h -10.70751 v -38.1386 l -54.21417,-21.46849 v 38.1386 z"
             id="text4"
             style="font-size:154.507px;font-family:Arial;-inkscape-font-specification:Arial;stroke-width:19.3253;stroke-linejoin:bevel;stroke-dashoffset:3.77953"
             aria-label="H&#10;"
             sodipodi:nodetypes="ccccccccccccc" />
          <g
             id="g20"
             transform="matrix(0.73159102,0,0,0.73159102,58.800259,-13.67266)">
            <g
               id="g19">
              <g
                 id="g4"
                 transform="rotate(30.274421,145.67943,414.35917)">
                <g
                   id="g3">
                  <g
                     id="g2">
                    <g
                       id="g1">
                      <path
                         style="font-size:76.987px;font-family:Arial;-inkscape-font-specification:Arial;stroke-width:31.0355;stroke-linejoin:bevel;stroke-dashoffset:3.77953"
                         d="m 291.78256,348.36269 16.71384,-5.93358 q 7.26318,20.622 1.74091,37.73527 -5.49775,16.99036 -22.38086,28.25871 -17.47292,11.66203 -33.18186,11.91622 -15.6844,0.13124 -30.43983,-9.52239 -14.68172,-9.70282 -25.01514,-25.18513 -11.26838,-16.88311 -13.21942,-33.69742 -1.92655,-16.93724 5.61306,-31.34737 7.56409,-14.53307 21.86683,-24.0792 16.21958,-10.8255 32.78954,-9.94926 16.56996,0.8762 30.90875,12.93924 l -11.86723,12.71616 q -11.63309,-9.28651 -22.37658,-9.89541 -10.74345,-0.60888 -21.58107,6.62452 -12.45959,8.31596 -16.87852,19.89728 -4.34523,11.53212 -0.99525,23.89603 3.30077,12.29016 10.43575,22.98034 9.20169,13.78664 20.07177,21.45104 10.89465,7.54148 22.76833,6.96975 11.87369,-0.57176 21.7529,-7.16547 12.01723,-8.0207 15.72275,-20.51127 3.70553,-12.49054 -2.44871,-28.09803 z"
                         id="path11" />
                      <ellipse
                         style="fill:#000000;fill-opacity:1;stroke:none;stroke-width:3.58446;stroke-linejoin:bevel;stroke-dashoffset:3.77953"
                         id="path20"
                         cx="-20.423037"
                         cy="404.26813"
                         transform="matrix(0.73801865,-0.67478031,0.69688354,0.71718431,0,0)"
                         rx="16.452137"
                         ry="16.422592" />
                      <path
                         id="rect20"
                         style="stroke-width:3.58363;stroke-linejoin:bevel;stroke-dashoffset:3.77953"
                         d="m 264.86625,313.08809 12.66337,-15.8396 5.75984,2.98867 c 4.94991,3.69314 10.34009,8.54019 3.00864,17.48592 l -0.94587,0.86482 c -4.2275,3.85197 -11.10214,2.98731 -14.88226,-0.43158 z"
                         sodipodi:nodetypes="cccccsc" />
                      <ellipse
                         style="fill:#ffffff;fill-opacity:1;stroke:none;stroke-width:3.10978;stroke-linejoin:bevel;stroke-dashoffset:3.77953"
                         id="path21"
                         cx="-157.67169"
                         cy="377.97662"
                         rx="1.0897367"
                         ry="6.5440221"
                         transform="matrix(0.45506963,-0.89045586,0.90121563,0.43337096,0,0)" />
                      <path
                         id="rect22"
                         style="stroke-width:3.58363;stroke-linejoin:bevel;stroke-dashoffset:3.77953"
                         d="m 282.28705,312.91258 1.05453,-1.68044 16.11644,9.36624 -1.31988,1.79318 z"
                         sodipodi:nodetypes="ccccc" />
                      <path
                         id="path22"
                         style="fill:#ffffff;stroke-width:3.58363;stroke-linejoin:bevel;stroke-dashoffset:3.77953"
                         inkscape:transform-center-x="-0.16198892"
                         inkscape:transform-center-y="-0.097200661"
                         d="m 296.91466,321.17015 2.1096,0.32676 -0.64704,1.17643 z"
                         sodipodi:nodetypes="cccc" />
                      <path
                         id="path23"
                         style="fill:#ffffff;stroke-width:3.58363;stroke-linejoin:bevel;stroke-dashoffset:3.77953"
                         inkscape:transform-center-x="-0.16198784"
                         inkscape:transform-center-y="-0.097203281"
                         d="m 297.25994,320.60512 2.1096,0.32675 -0.64704,1.17643 z"
                         sodipodi:nodetypes="cccc" />
                      <path
                         id="path24"
                         style="fill:#ffffff;stroke-width:3.58363;stroke-linejoin:bevel;stroke-dashoffset:3.77953"
                         inkscape:transform-center-x="-0.1619878"
                         inkscape:transform-center-y="-0.097202891"
                         d="m 297.56171,320.11103 2.1096,0.32676 -0.64705,1.17643 z"
                         sodipodi:nodetypes="cccc" />
                    </g>
                  </g>
                </g>
              </g>
              <g
                 id="g14"
                 transform="matrix(0.9416247,0,0,0.9416247,21.717025,26.607712)">
                <ellipse
                   style="fill:#000000;stroke:none;stroke-width:2.81588;stroke-linejoin:bevel;stroke-dashoffset:3.77953"
                   id="path5"
                   cx="-442.75989"
                   cy="-308.15961"
                   rx="11.464462"
                   ry="4.0262103"
                   transform="rotate(-159.38154)" />
                <ellipse
                   style="fill:#000000;stroke:none;stroke-width:3.33469;stroke-linejoin:bevel;stroke-dashoffset:3.77953"
                   id="ellipse5"
                   cx="-443.08344"
                   cy="-303.95862"
                   rx="13.576772"
                   ry="4.7680335"
                   transform="rotate(-159.38154)" />
                <ellipse
                   style="fill:#000000;stroke:none;stroke-width:3.33469;stroke-linejoin:bevel;stroke-dashoffset:3.77953"
                   id="ellipse6"
                   cx="-443.11179"
                   cy="-298.99414"
                   rx="13.576772"
                   ry="4.7680335"
                   transform="rotate(-159.38154)" />
                <ellipse
                   style="fill:#000000;stroke:none;stroke-width:2.93994;stroke-linejoin:bevel;stroke-dashoffset:3.77953"
                   id="ellipse7"
                   cx="-444.1174"
                   cy="-294.25238"
                   rx="11.96958"
                   ry="4.2036028"
                   transform="rotate(-159.38154)" />
                <ellipse
                   style="fill:#000000;stroke:none;stroke-width:2.35345;stroke-linejoin:bevel;stroke-dashoffset:3.77953"
                   id="ellipse8"
                   cx="-442.97141"
                   cy="-289.99387"
                   rx="9.5817518"
                   ry="3.36502"
                   transform="rotate(-159.38154)" />
                <ellipse
                   style="fill:#000000;stroke:none;stroke-width:2.35345;stroke-linejoin:bevel;stroke-dashoffset:3.77953"
                   id="ellipse9"
                   cx="-442.05331"
                   cy="-311.79419"
                   rx="9.5817518"
                   ry="3.36502"
                   transform="rotate(-159.38154)" />
                <ellipse
                   style="fill:#000000;stroke:none;stroke-width:1.80079;stroke-linejoin:bevel;stroke-dashoffset:3.77953"
                   id="ellipse10"
                   cx="-442.9017"
                   cy="-285.89633"
                   rx="7.3316827"
                   ry="2.5748174"
                   transform="rotate(-159.38154)" />
                <ellipse
                   style="fill:#000000;stroke:none;stroke-width:1.36091;stroke-linejoin:bevel;stroke-dashoffset:3.77953"
                   id="ellipse11"
                   cx="-442.65323"
                   cy="-282.66309"
                   rx="5.5408115"
                   ry="1.9458804"
                   transform="rotate(-159.38154)" />
                <ellipse
                   style="fill:#000000;stroke:none;stroke-width:0.853776;stroke-linejoin:bevel;stroke-dashoffset:3.77953"
                   id="ellipse12"
                   cx="-442.32413"
                   cy="-280.12366"
                   rx="3.4760537"
                   ry="1.220757"
                   transform="rotate(-159.38154)" />
                <path
                   id="ellipse13"
                   style="stroke-width:0.532334;stroke-linejoin:bevel;stroke-dashoffset:3.77953"
                   d="m 313.82588,415.56898 c 0.14804,-0.39344 1.75165,-2.37134 2.87195,-1.94982 1.12034,0.4215 1.33311,3.08281 1.18509,3.47624 -0.14804,0.39344 -1.17623,0.37073 -2.29655,-0.0508 -1.12033,-0.4215 -1.90852,-1.08217 -1.76049,-1.47561 z"
                   sodipodi:nodetypes="sssss" />
              </g>
            </g>
          </g>
          <path
             d="m 359.31748,336.14832 35.35071,-84.91564 12.7045,-1.39754 35.60847,85.935 -3.37966,13.85317 -19.58511,-41.45719 -37.26247,4.09901 -10.25655,30.26573 z m 26.84052,-33.49058 30.21117,-3.32333 -9.30042,-22.70204 c -2.83673,-6.89508 -4.94402,-12.58481 -6.32185,-17.06918 -1.13471,5.61782 -2.73542,11.24796 -4.80219,16.8904 z"
             id="text17"
             style="font-size:165.609px;font-family:Arial;-inkscape-font-specification:Arial;fill-opacity:0.968627;stroke-width:20.8682;stroke-linejoin:bevel;stroke-dashoffset:3.77953"
             aria-label="A"
             sodipodi:nodetypes="ccccccccccccccc" />
          <g
             id="g38"
             transform="matrix(0.71553837,0.10694827,-0.10694827,0.71553837,332.79262,-60.473581)">
            <path
               style="font-size:76.987px;font-family:Arial;-inkscape-font-specification:Arial;stroke-width:30.0163;stroke-linejoin:bevel;stroke-dashoffset:3.77953"
               d="m 365.92647,495.93796 q 0,-31.29046 16.80252,-48.95028 16.80256,-17.74553 43.37802,-17.74553 17.40262,0 31.37617,8.31555 13.97354,8.31553 21.26036,23.23208 7.37254,14.83082 7.37254,33.6908 0,19.11719 -7.71548,34.20519 -7.71544,15.08799 -21.86044,22.88919 -14.14498,7.71543 -30.51888,7.71543 -17.74556,0 -31.71911,-8.57272 -13.97353,-8.57274 -21.1746,-23.40356 -7.2011,-14.8308 -7.2011,-31.37615 z m 17.14544,0.25717 q 0,22.71774 12.17328,35.834 12.25898,13.03054 30.69035,13.03054 18.77428,0 30.86179,-13.202 12.17329,-13.20201 12.17329,-37.46281 0,-15.34517 -5.22936,-26.7469 -5.14363,-11.48747 -15.17372,-17.74556 -9.94435,-6.34381 -22.37481,-6.34381 -17.65981,0 -30.43318,12.17327 -12.68764,12.08756 -12.68764,40.46327 z"
               id="path15" />
            <ellipse
               style="fill:#000000;fill-opacity:1;stroke:none;stroke-width:6.67854;stroke-linejoin:bevel;stroke-dashoffset:3.77953"
               id="path1"
               cx="426.69775"
               cy="495.78525"
               rx="16.365656"
               ry="20.027903" />
            <g
               id="g37"
               transform="translate(1.375,28.250001)">
              <ellipse
                 style="fill:#000000;fill-opacity:1;stroke:none;stroke-width:3.64724;stroke-linejoin:bevel;stroke-dashoffset:3.77953"
                 id="path2"
                 cx="429.64017"
                 cy="467.98254"
                 rx="50"
                 ry="5.1875" />
              <ellipse
                 style="fill:#ffffff;fill-opacity:1;stroke:none;stroke-width:2.04174;stroke-linejoin:bevel;stroke-dashoffset:3.77953"
                 id="ellipse37"
                 cx="425.88037"
                 cy="467.57404"
                 rx="27.99021"
                 ry="2.9039843" />
            </g>
          </g>
        </g>
      </g>
    </g>
  </g>
</svg>
